HIERARCHY
ROOT Hips
{
	OFFSET 0.000000 0.000000 0.000000 
	CHANNELS 6 Xposition Yposition Zposition Zrotation Yrotation Xrotation
	JOINT LeftUpLeg
	{
		OFFSET 1.363060 -1.794630 0.839290 
		CHANNELS 3 Zrotation Yrotation Xrotation
		JOINT LeftLeg
		{
			OFFSET 2.448110 -6.726130 0.000000 
			CHANNELS 3 Zrotation Yrotation Xrotation
			JOINT LeftFoot
			{
				OFFSET 2.562200 -7.039590 0.000000 
				CHANNELS 3 Zrotation Yrotation Xrotation
				JOINT LeftToeBase
				{
					OFFSET 0.157640 -0.433110 2.322550 
					CHANNELS 3 Zrotation Yrotation Xrotation
					End Site
					{
						OFFSET 0.000000 0.000000 0.000000 
					}
				}
			}
		}
	}
	JOINT RightUpLeg
	{
		OFFSET -1.305520 -1.794630 0.839290 
		CHANNELS 3 Zrotation Yrotation Xrotation
		JOINT RightLeg
		{
			OFFSET -2.542530 -6.985550 0.000000 
			CHANNELS 3 Zrotation Yrotation Xrotation
			JOINT RightFoot
			{
				OFFSET -2.568260 -7.056230 0.000000 
				CHANNELS 3 Zrotation Yrotation Xrotation
				JOINT RightToeBase
				{
					OFFSET -0.164730 -0.452590 2.363150 
					CHANNELS 3 Zrotation Yrotation Xrotation
					End Site
					{
						OFFSET 0.000000 0.000000 0.000000 
					}
				}
			}
		}
	}
	JOINT Spine
	{
		OFFSET 0.028270 2.035590 -0.193380 
		CHANNELS 3 Zrotation Yrotation Xrotation
		JOINT Spine1
		{
			OFFSET 0.056720 2.048850 -0.042750 
			CHANNELS 3 Zrotation Yrotation Xrotation
			JOINT Neck1
			{
				OFFSET -0.054170 1.746240 0.172020 
				CHANNELS 3 Zrotation Yrotation Xrotation
				JOINT Head
				{
					OFFSET 0.104070 1.761360 -0.123970 
					CHANNELS 3 Zrotation Yrotation Xrotation
					End Site
					{
						OFFSET 0.000000 0.000000 0.000000 
					}
				}
			}
			JOINT LeftArm
			{
				OFFSET 3.362410 1.200890 -0.311210 
				CHANNELS 3 Zrotation Yrotation Xrotation
				JOINT LeftForeArm
				{
					OFFSET 4.983000 -0.000000 -0.000000 
					CHANNELS 3 Zrotation Yrotation Xrotation
					JOINT LeftHand
					{
						OFFSET 3.483560 -0.000000 -0.000000 
						CHANNELS 3 Zrotation Yrotation Xrotation
						JOINT LeftHandIndex1
						{
							OFFSET 0.715260 -0.000000 -0.000000 
							CHANNELS 3 Zrotation Yrotation Xrotation
							End Site
							{
								OFFSET 0.000000 0.000000 0.000000 
							}
						}
					}
				}
			}
			JOINT RightArm
			{
				OFFSET -3.136600 1.374050 -0.404650 
				CHANNELS 3 Zrotation Yrotation Xrotation
				JOINT RightForeArm
				{
					OFFSET -5.241900 -0.000000 -0.000000 
					CHANNELS 3 Zrotation Yrotation Xrotation
					JOINT RightHand
					{
						OFFSET -3.444170 -0.000000 -0.000000 
						CHANNELS 3 Zrotation Yrotation Xrotation
						JOINT RightHandIndex1
						{
							OFFSET -0.622530 -0.000000 -0.000000 
							CHANNELS 3 Zrotation Yrotation Xrotation
							End Site
							{
								OFFSET 0.000000 0.000000 0.000000 
							}
						}
					}
				}
			}
		}
	}
}
MOTION
Frames: 15
Frame Time: 0.041667
8.647726 17.330587 -42.994156 -4.594287 -7.909507 8.310110 -4.546210 -0.408602 -31.678047 -2.074355 8.625820 18.220738 -3.151962 12.845444 9.395883 1.111000 -6.696400 -18.819000 19.126909 -0.447555 -7.536627 2.869461 -5.736656 19.933965 -6.892746 23.130791 15.681083 -0.097500 -2.014100 5.544600 1.305245 5.964133 -3.721600 -2.381388 3.377431 -2.422128 3.110650 -1.195461 8.316539 -0.130000 -0.571300 3.978000 -95.354911 17.565681 4.406427 3.140857 -7.814805 -0.606557 -0.751426 0.926047 10.918702 -7.125000 0.000000 0.000000 79.473154 17.498389 27.583629 -25.494540 33.200659 -10.506130 2.059554 1.894252 -19.131857 7.125000 0.000000 0.000000 
8.679257 17.333289 -42.713872 -4.477444 -8.514234 8.496778 -3.451843 -1.741827 -30.852885 -2.485431 7.529177 15.136050 -3.706002 14.051370 8.663635 0.861500 -5.918800 -16.549100 18.520323 -0.512983 -6.664200 2.876086 -5.460465 19.334900 -7.062398 24.012189 15.040251 -0.100000 -2.039600 5.615100 1.277121 6.142378 -3.716861 -2.280561 3.507451 -2.366285 3.092447 -1.106225 8.178857 -0.168900 -0.525200 3.836100 -95.689387 18.776043 2.187013 2.985955 -7.643300 -0.601973 -0.915599 0.887787 11.919059 -7.125000 0.000000 0.000000 78.714470 18.444344 28.440494 -26.391034 33.825697 -10.995739 2.072375 1.912766 -19.826047 7.125000 0.000000 0.000000 
8.712364 17.319101 -42.431672 -4.348708 -9.196838 8.768194 -2.545161 -2.800893 -30.321030 -2.775610 6.572211 12.521398 -4.158839 14.880145 7.531294 0.618300 -5.032400 -14.001000 17.888642 -0.590800 -6.154388 2.921439 -5.249358 19.038348 -7.060170 24.538309 16.001302 -0.007600 -0.562100 1.544700 1.231896 6.370053 -3.767814 -1.939406 3.656635 -2.133390 4.112082 -0.594227 9.301592 0.737300 -0.260900 4.451600 -96.209897 20.460607 3.570791 3.519006 -8.467748 -0.735677 -1.343457 0.678410 9.122056 -7.125000 0.000000 0.000000 77.915705 19.379506 29.188397 -27.155034 34.291110 -11.340826 1.995594 1.965815 -20.089499 7.125000 0.000000 0.000000 
8.746147 17.307164 -42.171657 -4.355747 -9.624958 9.155773 -1.725777 -3.529410 -29.869554 -2.997258 5.475460 9.546508 -4.892972 16.470653 7.112228 0.585800 -4.900500 -13.624900 17.400744 -0.700070 -5.939728 3.120254 -4.939102 18.678458 -6.785970 24.359422 19.688580 -0.216400 -2.995000 8.264800 1.150620 6.647381 -3.832354 -1.874301 3.816595 -1.937621 4.966955 -0.284065 10.254070 1.486700 -0.100900 5.332900 -96.281801 23.299718 11.801273 5.555437 -11.393732 -0.988306 -1.044155 0.289670 0.229461 -7.125000 0.000000 0.000000 77.214182 20.582518 29.430558 -27.662666 34.516994 -11.569182 1.881846 2.069730 -20.345725 7.125000 0.000000 0.000000 
8.776664 17.308628 -41.911755 -4.285456 -10.006827 9.530716 -1.009295 -4.265868 -29.328028 -3.151227 4.398193 6.648724 -5.606941 18.027415 6.733372 0.539100 -4.704400 -13.067300 16.844564 -0.506506 -5.538973 3.191341 -4.783696 18.492133 -6.721638 24.005457 21.101010 -0.155300 -2.539200 6.998400 1.118754 6.756305 -3.814728 -1.966314 3.881445 -1.716769 4.718746 -0.405284 9.991287 1.252200 -0.159800 5.143100 -96.421311 21.474797 -4.503638 2.830466 -7.361611 -0.519270 -0.519420 0.825294 14.989036 -7.125000 0.000000 0.000000 76.579010 21.979480 29.706490 -28.113753 34.653365 -11.708025 1.662780 2.201814 -20.378916 7.125000 0.000000 0.000000 
8.808195 17.287345 -41.642281 -4.360572 -10.460124 9.853635 -0.840797 -3.866659 -29.136252 -3.253639 3.403632 4.144262 -5.452059 17.854624 7.328709 0.333000 -3.708400 -10.257800 16.457702 0.050444 -4.753088 3.294683 -4.570755 18.147822 -6.621849 23.689906 22.531002 -0.157200 -2.554700 7.041500 1.135255 6.796850 -3.750283 -1.670434 3.941195 -1.230749 4.638762 -0.233994 9.856692 1.174900 -0.073700 5.042000 -97.045074 23.716071 3.598923 4.490528 -9.931180 -0.738369 -0.506610 0.402880 5.635486 -7.125000 0.000000 0.000000 76.002972 23.249973 29.908071 -28.553846 34.954378 -12.179109 1.767200 2.331047 -20.287021 7.125000 0.000000 0.000000 
8.840514 17.248945 -41.375621 -4.648615 -10.966416 10.072367 -0.565537 -3.400731 -28.952236 -3.255486 2.573444 1.927217 -5.681461 18.734728 8.457112 0.481700 -4.450600 -12.347800 16.379564 0.389869 -3.799623 3.260195 -4.430146 17.751221 -6.723589 24.543708 20.941464 -0.114600 -2.182700 6.011000 1.148801 6.954644 -3.701456 -1.517151 4.044093 -0.947084 4.741347 -0.163563 9.654465 1.261900 -0.036600 4.892200 -97.663482 24.695248 2.169795 4.842911 -10.448754 -0.832581 -0.639001 0.420389 5.642263 -7.125000 0.000000 0.000000 75.397666 24.240470 30.018841 -29.005127 35.267556 -12.658748 2.000718 2.327925 -20.406193 7.125000 0.000000 0.000000 
8.873396 17.246355 -41.109188 -4.986828 -11.431649 10.224740 -0.280691 -2.866118 -28.533239 -3.198243 1.809838 -0.236052 -6.279960 20.806645 10.336368 1.251100 -7.091500 -19.986800 16.242317 0.949944 -2.766619 3.450444 -4.074882 17.130838 -6.477284 23.613766 23.656763 -0.185300 -2.772600 7.646300 1.129889 7.204875 -3.677707 -1.640337 4.175492 -0.860619 4.848906 -0.101187 9.548706 1.319500 0.004400 4.822100 -97.982596 25.340330 -0.396866 4.698365 -10.251708 -0.859309 -0.885799 0.544504 6.734843 -7.125000 0.000000 0.000000 74.805374 25.006108 30.130496 -29.546962 35.525735 -12.934560 2.129507 2.185748 -20.566240 7.125000 0.000000 0.000000 
8.910669 17.244778 -40.837799 -5.313930 -11.844064 10.253700 0.014504 -2.604690 -28.387297 -3.155711 1.575170 -0.861054 -6.002568 20.443649 11.157935 1.226500 -7.023900 -19.786200 16.181657 1.612725 -1.494266 3.577414 -3.736861 16.478844 -6.298574 22.537804 25.205535 -0.190200 -2.808900 7.747100 1.098289 7.494572 -3.663022 -1.965111 4.331866 -0.858724 4.740698 0.015510 9.574013 1.113100 0.083100 4.857500 -97.890694 26.087600 -1.086912 4.636288 -10.228950 -0.893800 -1.243347 0.422557 6.278830 -7.125000 0.000000 0.000000 74.351315 25.496540 30.099084 -30.224461 35.893220 -13.269778 2.168524 2.067935 -20.710641 7.125000 0.000000 0.000000 
8.948956 17.216513 -40.564046 -5.543871 -12.299828 10.245794 0.142811 -2.640420 -29.090774 -3.146545 2.242352 0.829183 -5.244367 18.498975 10.891679 0.850500 -5.881600 -16.441400 16.121148 2.277604 -0.192366 3.638303 -3.421926 15.847090 -6.187741 21.638860 25.432031 -0.117700 -2.211500 6.090500 1.052238 7.758608 -3.675060 -2.143475 4.495997 -0.938087 4.902117 -0.101114 9.447517 1.298300 0.021900 4.849600 -97.816859 26.730751 -1.699143 4.629125 -10.206262 -0.852313 -0.405661 0.747975 5.991896 -7.125000 0.000000 0.000000 73.985402 25.766733 29.996653 -30.895787 36.331212 -13.713067 2.198864 2.033776 -20.821429 7.125000 0.000000 0.000000 
8.984203 17.188924 -40.287815 -5.687879 -12.657786 10.309425 0.210618 -2.633236 -29.582202 -3.124557 2.751022 2.041798 -4.906152 17.727750 10.992097 0.853800 -5.892800 -16.473600 15.986091 2.904897 0.774756 3.701595 -3.203556 15.440863 -6.054036 20.571402 26.344975 -0.018300 -0.872600 2.398400 1.015140 7.944786 -3.677629 -2.258644 4.614093 -0.939777 5.053985 -0.169935 9.263805 1.434100 -0.008600 4.760100 -97.798130 27.144981 -3.596974 4.386900 -9.860231 -0.822797 -0.112311 0.825035 6.950333 -7.125000 0.000000 0.000000 73.759140 25.966629 29.818026 -31.545281 36.768589 -14.161734 2.200482 2.032544 -20.723754 7.125000 0.000000 0.000000 
9.016747 17.159195 -40.003926 -5.679968 -12.937398 10.200681 0.123513 -2.641950 -29.716078 -3.109996 3.193884 3.123047 -4.853635 17.539515 10.842472 1.059200 -6.543700 -18.370500 15.706172 3.320034 1.556882 3.732732 -3.113913 15.395942 -5.902423 19.448462 28.013838 -0.000800 -0.179700 0.493800 0.961642 8.135976 -3.676606 -2.382880 4.724786 -0.994407 5.160260 -0.377964 9.159064 1.498000 -0.104700 4.738200 -97.547401 27.458300 -6.790113 3.933792 -9.174947 -0.719063 -0.108908 0.759247 9.512956 -7.125000 0.000000 0.000000 73.609502 26.019507 29.419588 -32.130553 37.176496 -14.616086 2.210859 2.040062 -20.499847 7.125000 0.000000 0.000000 
9.046364 17.125525 -39.714070 -5.459164 -13.228756 9.960381 -0.191050 -2.685832 -29.697647 -3.113283 3.712721 4.478060 -4.662347 16.985073 10.532597 0.981700 -6.306800 -17.677200 15.199591 3.663111 2.313501 3.707745 -3.140297 15.659173 -5.785520 18.489750 29.556896 -0.061700 -1.602200 4.407400 0.919440 8.258840 -3.655970 -2.313108 4.804706 -1.027069 5.292385 -0.556072 9.047313 1.561800 -0.184100 4.723600 -97.334312 27.643472 -9.292162 3.519168 -8.562350 -0.643604 -0.123283 0.766352 11.459118 -7.125000 0.000000 0.000000 73.428970 26.038820 29.119530 -32.624551 37.482377 -14.952654 2.215645 2.010649 -20.393418 7.125000 0.000000 0.000000 
9.075529 17.095796 -39.421736 -5.250331 -13.273082 9.783583 -0.453295 -2.942468 -29.717811 -3.097491 4.296079 5.968319 -4.398869 16.393083 10.577028 0.774700 -5.619800 -15.685100 14.819621 4.121407 2.992297 3.647130 -3.280128 16.135304 -5.641555 17.269579 30.781459 -0.126200 -2.289600 6.306800 0.903438 8.273156 -3.640511 -2.152591 4.830803 -0.993336 5.374033 -0.671242 8.992852 1.584700 -0.234200 4.767800 -97.153124 27.825023 -10.718828 3.186748 -8.100515 -0.594085 -0.148554 0.809418 12.652192 -7.125000 0.000000 0.000000 73.151079 25.864854 28.987871 -33.195301 37.797674 -15.219420 2.176985 1.920173 -20.672733 7.125000 0.000000 0.000000 
9.107510 17.064040 -39.124222 -5.241656 -13.039327 9.769429 -1.461976 -1.846916 -30.591799 -3.063918 4.977041 7.685026 -3.723671 15.494630 12.738010 0.706500 -5.372300 -14.973700 14.813720 4.943296 3.906384 3.573014 -3.431897 16.516979 -5.410754 15.608831 31.007120 -0.153700 -2.526000 6.961600 0.900009 8.260791 -3.675388 -2.099550 4.842124 -1.108711 5.311355 -0.789742 8.941225 1.493100 -0.291400 4.767600 -96.956355 27.962857 -15.030684 2.884377 -7.570900 -0.570513 -0.032296 0.913789 17.018260 -7.125000 0.000000 0.000000 72.928111 25.262584 28.741612 -33.741413 38.306213 -15.820429 2.246255 1.982144 -21.137759 7.125000 0.000000 0.000000 
